<svg xmlns="http://www.w3.org/2000/svg" width="600" height="312.763" viewBox="0 0 600 312.763"><path d="M205.909 211.855l-21.379-10.542c2.315 8.314 4.194 16.755 5.67 24.884l72.086 37.71-21.263-44.573c-16.07.299-29.437-4.675-35.114-7.479z" fill="#8cc640"/><path d="M241.088 100.234c-1.868 7.946-5.16 15.382-10.331 21.826 16.782-2.758 37.835-8.672 59.211-21.067l-48.88-.759z" fill="#a8d16d"/><path d="M162.689 197.01a29.287 29.287 0 0 0-.04-2.165c-6.69.463-12.966 3.248-17.406 7.892l-34.947 34.79c-7.691 7.652-11.172 5.495-7.74-4.796l7.687-23.047c-10.603 9.62-21.536 17.754-32.626 24.219l-12.885 37.486-14.225 41.374 6.23-6.131 99.651-98.123 4.245 2.22c.888-3.529 1.364-7.18 1.794-10.807.115-.967.23-1.938.26-2.912h.002z" fill="#1a70b2"/><path d="M190.2 226.197c-1.476-8.13-3.354-16.57-5.67-24.884l-7.618-3.759c-4.647-2.246-9.554-3.035-14.262-2.708.031.72.061 1.443.039 2.165-.031.975-.146 1.944-.26 2.914-.43 3.624-.906 7.277-1.795 10.807l25.061 13.11 4.503 2.355h.001z" fill="#5f88c1"/><path d="M94.062 186.068l-16.442 47.83c11.087-6.462 22.021-14.595 32.623-24.214l10.835-32.483c.173-.516.239-1.068.37-1.599-4.965 3.53-10.914 5.852-16.727 7.895-3.453 1.213-7.039 2.372-10.659 2.571z" fill="#ee6da1"/><path d="M111.138 147.216L79.92 125.483c-8.899-6.198-7.459-9.678 3.223-7.729l39.045 7.128c.717.13 1.424.128 2.137.184-4.547-6.473-8.473-14.151-11.85-22.467L62.28 92.435 0 79.828l104.265 76.561-2.992 8.703-7.21 20.977c3.618-.199 7.202-1.358 10.658-2.572 5.812-2.043 11.761-4.366 16.728-7.893 2.513-10.057-1.863-22.496-10.311-28.386v-.002z" fill="#ea2487"/><path d="M142.276 103.658c-.968-6.82-1.938-13.651-2.307-20.536-.143-2.675-.195-5.353-.247-8.03l-.207-10.568-10.813 41.36-16.215-3.285c3.372 8.317 7.297 15.994 11.844 22.467 8.179.652 15.977-3.458 19.99-10.746-.235-.843-.48-1.684-.671-2.54-.6-2.675-.986-5.4-1.373-8.121l-.001-.001z" fill="#fec96a"/><path d="M185.714 99.375L156.389 0l-16.874 64.524.208 10.568c.052 2.677.104 5.356.248 8.03.367 6.885 1.337 13.716 2.305 20.536.387 2.72.774 5.446 1.372 8.121.192.857.437 1.697.671 2.541.855-1.555 1.6-3.202 2.072-5.034l6.155-24.583c2.631-10.527 7.474-10.678 10.766-.344l6.633 20.878c3.284 10.343 14.002 18.57 25.695 18.798 0 0 14.255 1.453 35.114-1.974 5.174-6.445 8.463-13.881 10.334-21.827l-55.374-.86v.001z" fill="#fdba32"/><path d="M191.34 156.917a49.28 49.28 0 0 0-1.271 6.272 140.97 140.97 0 0 0-.762 7.203h-.086c-.225-2.824-.495-5.267-.805-7.33a52.138 52.138 0 0 0-1.313-6.145l-6.44-25.253h-16.865v58.898h11.017V165.14c0-3.56-.1-7.429-.297-11.61-.199-4.181-.41-7.797-.635-10.849h.085c.224 1.64.465 3.235.72 4.789.254 1.554.55 3.277.89 5.17.339 1.893.72 3.827 1.144 5.804.423 1.98.86 3.758 1.313 5.339l4.83 17.034h11.526l5-17.882c.904-3.333 1.723-6.919 2.458-10.762.733-3.841 1.27-7.005 1.61-9.492h.17c-.227 2.77-.425 6.09-.594 9.958-.169 3.87-.254 7.954-.254 12.246v25.678h12.204v-58.898h-17.797l-5.848 25.253zm51.61-10.762c-6.159 0-10.834 1.78-14.026 5.34-3.193 3.559-4.788 9.294-4.788 17.203s1.595 13.715 4.788 17.415c3.192 3.7 7.867 5.551 14.026 5.551 6.157 0 10.832-1.793 14.025-5.382 3.191-3.587 4.788-9.335 4.788-17.245 0-7.967-1.597-13.771-4.788-17.416-3.193-3.644-7.868-5.466-14.025-5.466zm4.788 33.772c-.82 1.948-2.388 2.923-4.704 2.923-2.373 0-3.97-.932-4.787-2.796-.82-1.864-1.23-5.537-1.23-11.017 0-2.938.085-5.31.255-7.12.169-1.807.479-3.205.932-4.194.452-.988 1.045-1.68 1.78-2.076.733-.395 1.722-.593 2.966-.593 1.242 0 2.231.184 2.965.55.734.368 1.328 1.032 1.78 1.992.452.962.777 2.317.975 4.067.197 1.752.297 4.098.297 7.035 0 5.537-.41 9.279-1.23 11.229zm45.296-33.772c-2.542 0-4.76.453-6.652 1.356-1.894.905-3.743 2.203-5.551 3.898l-1.017-4.152h-9.746v43.305h11.95v-32.288c1.13-.904 2.146-1.554 3.05-1.949.903-.395 1.977-.594 3.22-.594 1.357 0 2.359.354 3.01 1.06.648.707.974 2.048.974 4.026v29.745h12.033v-32.457c0-4.293-.919-7.36-2.754-9.196-1.836-1.835-4.675-2.754-8.517-2.754zm40.847 35.678c-1.186.51-2.26.762-3.22.762-1.13 0-1.949-.323-2.457-.973-.509-.65-.763-1.85-.763-3.602v-21.695h7.966v-9.068h-7.966V134.63l-11.95 2.033v10.594h-4.406v9.068h4.407v24.491c0 3.956 1.045 6.752 3.135 8.39 2.09 1.639 5.113 2.458 9.068 2.458 1.807 0 3.319-.156 4.534-.467 1.214-.31 2.47-.775 3.771-1.397l-1.61-8.136a2.58 2.58 0 0 1-.509.17zm62.372-14.533c-1.186-1.724-2.684-2.868-4.49-3.433 3.558-.96 6.186-2.598 7.88-4.915 1.695-2.316 2.543-5.79 2.543-10.424 0-5.649-1.61-9.873-4.83-12.67-3.221-2.796-8.504-4.194-15.848-4.194h-18.475v58.898h12.712V166.58h2.627c2.26 0 3.884.466 4.873 1.399.988.931 1.878 2.867 2.67 5.804l4.576 16.78h13.56l-4.662-16.017c-.904-3.107-1.949-5.521-3.136-7.245zm-8.94-11.992c-.99 1.243-2.755 1.864-5.297 1.864h-6.271v-14.83h6.186c2.486 0 4.25.523 5.297 1.567 1.045 1.046 1.568 2.811 1.568 5.297 0 2.826-.495 4.86-1.483 6.102zm40.636-9.153c-6.158 0-10.834 1.78-14.025 5.34-3.193 3.559-4.788 9.294-4.788 17.203s1.595 13.715 4.788 17.415c3.191 3.7 7.867 5.551 14.025 5.551s10.833-1.793 14.026-5.382c3.19-3.587 4.787-9.335 4.787-17.245 0-7.967-1.596-13.771-4.787-17.416-3.193-3.644-7.868-5.466-14.026-5.466zm4.788 33.772c-.82 1.948-2.387 2.923-4.703 2.923-2.373 0-3.97-.932-4.788-2.796-.82-1.864-1.23-5.537-1.23-11.017 0-2.938.086-5.31.255-7.12.17-1.807.48-3.205.932-4.194.452-.988 1.045-1.68 1.78-2.076.734-.395 1.723-.593 2.966-.593 1.242 0 2.232.184 2.966.55.734.368 1.327 1.032 1.78 1.992.451.962.776 2.317.975 4.067.197 1.752.296 4.098.296 7.035 0 5.537-.41 9.279-1.229 11.229zm38.602 2.5a11.34 11.34 0 0 1-1.017.084c-1.413 0-2.317-.212-2.712-.636-.396-.424-.593-1.453-.593-3.092v-50.255h-11.95v49.322c0 5.03.678 8.56 2.035 10.593 1.355 2.034 4.18 3.052 8.474 3.052 1.356 0 2.627-.127 3.813-.382 1.188-.254 2.232-.55 3.136-.89l-1.186-7.797zm23.475-36.272c-3.278 0-6.272.453-8.984 1.356-2.712.905-5.31 2.203-7.796 3.898l4.322 8.136c1.92-1.13 3.813-2.033 5.677-2.712s3.73-1.017 5.594-1.017c1.92 0 3.205.453 3.856 1.356.649.905.975 2.515.975 4.83v1.61h-2.627c-6.498 0-11.26 1.117-14.28 3.348-3.023 2.233-4.534 5.835-4.534 10.806 0 4.463 1.03 7.895 3.093 10.297 2.062 2.401 5.297 3.601 9.704 3.601 2.145 0 4.038-.41 5.677-1.23a14.773 14.773 0 0 0 4.322-3.262c.056.057.254.678.594 1.864.339 1.017.536 1.526.593 1.526h9.406v-30.424c0-5.028-1.228-8.615-3.685-10.762-2.459-2.147-6.428-3.22-11.907-3.22zm3.644 35c-.792.735-1.61 1.3-2.458 1.695-.847.396-1.808.593-2.881.593-1.583 0-2.684-.437-3.305-1.313-.623-.876-.933-2.387-.933-4.534 0-2.485.579-4.208 1.737-5.169 1.158-.96 3.574-1.442 7.247-1.442h.593v10.17zm44.066 9.407h12.034v-32.457c0-4.293-.919-7.36-2.754-9.196-1.836-1.835-4.676-2.754-8.517-2.754-2.542 0-4.76.453-6.653 1.356-1.894.905-3.743 2.203-5.55 3.898l-1.018-4.152h-9.746v43.305h11.95v-32.288c1.13-.904 2.146-1.554 3.05-1.949.904-.395 1.977-.594 3.222-.594 1.355 0 2.358.354 3.007 1.06s.975 2.048.975 4.026v29.745zm46.695 0h9.746v-62.034h-11.948v21.695c-1.188-1.13-2.628-2.09-4.322-2.882-1.695-.79-3.56-1.186-5.594-1.186-5.085 0-8.758 1.682-11.017 5.043-2.26 3.362-3.39 9.422-3.39 18.177 0 4.182.338 7.712 1.017 10.594.678 2.88 1.666 5.17 2.966 6.864 1.3 1.695 2.852 2.924 4.66 3.687 1.81.762 3.9 1.144 6.272 1.144 2.147 0 4.026-.424 5.635-1.271 1.612-.848 3.264-2.147 4.959-3.898l1.016 4.067zm-2.202-10.848a10.727 10.727 0 0 1-2.712 1.737c-.963.424-2.091.637-3.39.637-2.149 0-3.574-.819-4.28-2.458-.707-1.638-1.06-5.113-1.06-10.424 0-2.881.085-5.182.255-6.907.17-1.723.466-3.064.89-4.025.423-.96 1.001-1.624 1.737-1.992.733-.366 1.723-.55 2.966-.55 1.13 0 2.161.226 3.093.678a10.294 10.294 0 0 1 2.5 1.695v21.61zM313.67 100.785h-6.276v3.285h2.323v3.391a3.41 3.41 0 0 1-.92.495 3.42 3.42 0 0 1-1.136.174c-.587 0-1.073-.098-1.455-.294-.383-.196-.695-.535-.935-1.015-.24-.48-.419-1.135-.535-1.963s-.173-1.891-.173-3.191c0-1.246.058-2.252.173-3.018.116-.765.294-1.371.535-1.816.24-.445.565-.757.974-.935.41-.178.935-.267 1.576-.267.623 0 1.166.111 1.63.334.462.223.996.583 1.601 1.081l2.137-2.857c-.802-.676-1.638-1.17-2.51-1.482-.873-.312-1.896-.468-3.072-.468-2.474 0-4.33.753-5.568 2.257-1.238 1.505-1.855 3.975-1.855 7.411 0 3.294.577 5.715 1.735 7.264s2.849 2.323 5.074 2.323c.641 0 1.25-.124 1.83-.374a4.678 4.678 0 0 0 1.535-1.068l.427 1.095h2.885v-10.362zm6.916.641a3.56 3.56 0 0 1 .908-.494c.285-.098.641-.147 1.068-.147.498 0 .953.125 1.363.374l.667-3.765a4.857 4.857 0 0 0-1.068-.134c-1.335 0-2.43.597-3.285 1.79l-.347-1.55h-3.071v13.647h3.765v-9.721zm11.27-4.273c-1.941 0-3.415.561-4.42 1.683-1.006 1.121-1.509 2.929-1.509 5.421 0 2.493.503 4.322 1.509 5.488 1.005 1.166 2.479 1.75 4.42 1.75 1.94 0 3.414-.566 4.42-1.696 1.005-1.131 1.508-2.943 1.508-5.435 0-2.51-.503-4.34-1.508-5.488-1.006-1.148-2.48-1.723-4.42-1.723zm1.508 10.643c-.258.614-.752.92-1.482.92-.747 0-1.25-.293-1.508-.88-.259-.588-.388-1.745-.388-3.472 0-.926.027-1.674.08-2.244.054-.57.151-1.01.294-1.321.142-.312.33-.53.56-.655.232-.124.544-.187.936-.187.391 0 .703.058.934.174.231.116.418.325.561.627.143.303.245.731.307 1.283.063.551.094 1.29.094 2.216 0 1.745-.13 2.924-.388 3.539zm13.98-.174a5.241 5.241 0 0 1-.947.614 2.255 2.255 0 0 1-1.002.214c-.445 0-.774-.116-.988-.347-.213-.232-.32-.659-.32-1.282V97.5h-3.766v10.04c0 1.3.343 2.284 1.029 2.952.685.667 1.606 1.001 2.764 1.001.818 0 1.477-.133 1.976-.4.498-.268 1.041-.704 1.63-1.309l.32 1.362h3.07V97.501h-3.765v10.12zm17.359 2.217c.712-1.104 1.068-3.045 1.068-5.823 0-1.317-.098-2.416-.294-3.298s-.484-1.584-.867-2.109-.85-.9-1.402-1.122c-.553-.223-1.211-.334-1.977-.334-1.281 0-2.448.552-3.498 1.656l-.32-1.308h-3.072v18.8h3.766v-6.062c.391.356.85.654 1.375.895.525.24 1.117.36 1.776.36 1.584 0 2.733-.551 3.445-1.655zm-3.044-3.445c-.054.534-.152.952-.294 1.255-.232.552-.721.827-1.469.827-.374 0-.707-.066-1.001-.2a2.943 2.943 0 0 1-.788-.52v-6.81a3.44 3.44 0 0 1 .881-.574c.303-.134.65-.2 1.042-.2.694 0 1.157.258 1.388.774.124.285.21.69.254 1.214.044.526.067 1.216.067 2.07 0 .908-.027 1.63-.08 2.164zm12.765 5.1c.944 0 1.807-.151 2.59-.454.784-.302 1.434-.694 1.95-1.175l-1.629-2.51a7.878 7.878 0 0 1-1.416.868c-.444.204-.97.307-1.575.307-.855 0-1.46-.2-1.816-.6-.356-.402-.57-1.207-.64-2.418h7.343v-1.095c0-2.546-.44-4.393-1.322-5.541-.881-1.148-2.346-1.723-4.393-1.723-1.87 0-3.29.561-4.26 1.683-.97 1.121-1.455 2.929-1.455 5.421 0 2.546.53 4.389 1.59 5.528 1.058 1.14 2.737 1.71 5.033 1.71zm-2.07-10.99c.258-.417.69-.627 1.296-.627.694 0 1.152.223 1.375.668.222.445.352 1.246.387 2.404h-3.525c.054-1.211.21-2.026.468-2.444zm12.752 7.892c-.57 0-1.126-.093-1.67-.28a7.361 7.361 0 0 1-1.535-.735l-1.202 2.858c.606.356 1.34.654 2.204.895.864.24 1.803.36 2.818.36 1.69 0 2.946-.387 3.765-1.161s1.228-1.892 1.228-3.352c0-.694-.093-1.286-.28-1.776a3.2 3.2 0 0 0-.775-1.202 4.428 4.428 0 0 0-1.135-.774 8.902 8.902 0 0 0-1.549-.548c-.818-.23-1.344-.427-1.575-.587-.232-.16-.347-.445-.347-.855 0-.356.12-.623.36-.801.24-.178.574-.267 1.002-.267 1.015 0 1.967.223 2.857.668l.935-2.831a10.3 10.3 0 0 0-1.91-.641c-.632-.143-1.393-.214-2.283-.214-1.478 0-2.622.352-3.432 1.055-.81.704-1.214 1.732-1.214 3.084 0 1.211.27 2.137.814 2.778.543.64 1.357 1.122 2.444 1.442.943.285 1.566.525 1.87.721.301.196.453.517.453.962 0 .801-.614 1.201-1.843 1.201zm22.02-4.393a4.428 4.428 0 0 0-1.136-.774 8.902 8.902 0 0 0-1.549-.548c-.819-.23-1.344-.427-1.575-.587-.232-.16-.348-.445-.348-.855 0-.356.12-.623.361-.801.24-.178.574-.267 1.002-.267 1.014 0 1.966.223 2.857.668l.934-2.831a10.3 10.3 0 0 0-1.909-.641c-.632-.143-1.393-.214-2.283-.214-1.478 0-2.622.352-3.432 1.055-.81.704-1.215 1.732-1.215 3.084 0 1.211.271 2.137.815 2.778.543.64 1.357 1.122 2.443 1.442.944.285 1.567.525 1.87.721.302.196.453.517.453.962 0 .801-.614 1.201-1.842 1.201-.57 0-1.127-.093-1.67-.28a7.361 7.361 0 0 1-1.535-.735l-1.202 2.858c.605.356 1.34.654 2.204.895.863.24 1.802.36 2.817.36 1.691 0 2.946-.387 3.765-1.161s1.23-1.892 1.23-3.352c0-.694-.094-1.286-.281-1.776a3.2 3.2 0 0 0-.775-1.202zm8.692 7.491c.872 0 1.647-.133 2.323-.4a5.412 5.412 0 0 0 1.79-1.149l-1.576-2.51c-.41.356-.77.614-1.082.774-.311.16-.707.24-1.188.24-.784 0-1.318-.284-1.602-.854-.285-.57-.428-1.7-.428-3.391 0-1.656.138-2.742.415-3.258.275-.516.778-.775 1.508-.775.427 0 .801.085 1.122.253.32.17.64.424.96.762l1.844-2.457a5.991 5.991 0 0 0-1.896-1.188c-.677-.258-1.46-.388-2.35-.388-1.906 0-3.33.566-4.273 1.696-.944 1.13-1.416 2.933-1.416 5.408 0 2.475.48 4.3 1.442 5.475.962 1.175 2.43 1.762 4.407 1.762zm11.483 0c1.94 0 3.414-.565 4.42-1.695 1.005-1.131 1.508-2.943 1.508-5.435 0-2.51-.503-4.34-1.508-5.488-1.006-1.148-2.48-1.723-4.42-1.723s-3.415.561-4.42 1.683c-1.006 1.121-1.509 2.929-1.509 5.421 0 2.493.503 4.322 1.509 5.488 1.005 1.166 2.48 1.75 4.42 1.75zm-1.79-9.374c.054-.57.151-1.01.295-1.321.141-.312.328-.53.56-.655.231-.124.543-.187.935-.187.391 0 .703.058.935.174.23.116.418.325.56.627.143.303.245.731.308 1.283.062.551.093 1.29.093 2.216 0 1.745-.13 2.924-.387 3.539-.259.614-.753.92-1.482.92-.748 0-1.251-.293-1.51-.88-.257-.588-.387-1.745-.387-3.472 0-.926.027-1.674.08-2.244zm13.646 9.321c.428 0 .83-.04 1.202-.12.374-.08.705-.174.99-.28l-.374-2.458c-.16.018-.268.027-.321.027-.445 0-.73-.067-.855-.2-.125-.134-.186-.459-.186-.975V91.599h-3.766v15.542c0 1.585.213 2.698.64 3.339.428.64 1.318.961 2.67.961zm10.977-.774c.107.32.17.48.187.48h2.964v-9.587c0-1.585-.387-2.715-1.16-3.392-.776-.676-2.027-1.015-3.754-1.015-1.032 0-1.976.143-2.83.428a9.934 9.934 0 0 0-2.457 1.228l1.362 2.564c.605-.356 1.202-.641 1.789-.855a5.144 5.144 0 0 1 1.762-.32c.606 0 1.01.142 1.216.427.204.285.307.793.307 1.522v.508h-.828c-2.048 0-3.548.352-4.5 1.055s-1.43 1.838-1.43 3.405c0 1.406.327 2.488.976 3.244.65.757 1.67 1.135 3.058 1.135.677 0 1.272-.13 1.79-.387.516-.258.969-.6 1.36-1.028.019.017.081.213.188.588zm-.614-2.485c-.25.232-.507.41-.775.535-.267.125-.57.187-.907.187-.499 0-.846-.138-1.042-.414-.196-.276-.294-.752-.294-1.429 0-.783.183-1.326.548-1.629.364-.303 1.125-.454 2.283-.454h.187v3.204zm9.507-12.257c.622 0 1.157-.223 1.602-.668.444-.445.667-.979.667-1.602 0-.623-.223-1.157-.667-1.603a2.22 2.22 0 0 0-1.629-.667c-.623 0-1.153.223-1.59.667a2.239 2.239 0 0 0-.653 1.63c0 .623.222 1.152.667 1.588.445.437.98.655 1.603.655zm-1.896 15.222h3.791V97.501h-5.34v2.456l1.549.375v10.815zm10.843-9.721c.32-.231.622-.396.907-.494s.642-.147 1.07-.147c.497 0 .951.125 1.36.374l.669-3.765a4.863 4.863 0 0 0-1.069-.134c-1.335 0-2.43.597-3.285 1.79l-.347-1.55h-3.071v13.647h3.766v-9.721zm11.964 10.068c.943 0 1.806-.151 2.59-.454.784-.302 1.433-.694 1.95-1.175l-1.63-2.51a7.897 7.897 0 0 1-1.415.868c-.445.204-.97.307-1.575.307-.856 0-1.461-.2-1.816-.6-.357-.402-.57-1.207-.642-2.418h7.345v-1.095c0-2.546-.44-4.393-1.323-5.541-.88-1.148-2.345-1.723-4.393-1.723-1.87 0-3.29.561-4.26 1.683-.97 1.121-1.455 2.929-1.455 5.421 0 2.546.53 4.389 1.59 5.528 1.058 1.14 2.737 1.71 5.034 1.71zm-2.07-10.99c.258-.417.689-.627 1.295-.627.695 0 1.153.223 1.375.668.222.445.352 1.246.387 2.404h-3.525c.054-1.211.209-2.026.467-2.444zm12.751 7.892c-.57 0-1.126-.093-1.668-.28a7.38 7.38 0 0 1-1.536-.735l-1.202 2.858c.605.356 1.339.654 2.203.895.863.24 1.802.36 2.818.36 1.691 0 2.946-.387 3.765-1.161.819-.775 1.229-1.892 1.229-3.352 0-.694-.095-1.286-.28-1.776a3.193 3.193 0 0 0-.775-1.202 4.428 4.428 0 0 0-1.136-.774 8.902 8.902 0 0 0-1.548-.548c-.82-.23-1.344-.427-1.576-.587-.232-.16-.347-.445-.347-.855 0-.356.12-.623.36-.801.24-.178.575-.267 1.001-.267a6.31 6.31 0 0 1 2.859.668l.934-2.831a10.284 10.284 0 0 0-1.91-.641c-.632-.143-1.393-.214-2.282-.214-1.48 0-2.622.352-3.433 1.055-.81.704-1.215 1.732-1.215 3.084 0 1.211.271 2.137.814 2.778.544.64 1.358 1.122 2.444 1.442.944.285 1.567.525 1.87.721s.454.517.454.962c0 .801-.615 1.201-1.843 1.201zm-120.447 95.008h-5.664v26.6h13.817v-4.899h-8.153v-21.7zm18.983 6.544c-1.48 0-2.832.205-4.057.612a14.205 14.205 0 0 0-3.52 1.762l1.951 3.674c.867-.51 1.723-.92 2.565-1.225a7.337 7.337 0 0 1 2.526-.459c.867 0 1.447.204 1.741.612.293.409.44 1.135.44 2.182v.726h-1.186c-2.935 0-5.085.505-6.45 1.512-1.365 1.01-2.047 2.636-2.047 4.88 0 2.017.465 3.567 1.397 4.65.931 1.085 2.392 1.627 4.382 1.627.97 0 1.825-.186 2.565-.555.74-.37 1.39-.861 1.952-1.473.025.025.114.306.268.842.152.46.241.689.268.689h4.248v-13.741c0-2.27-.555-3.89-1.665-4.86-1.11-.97-2.903-1.455-5.378-1.455zm1.646 15.808a4.308 4.308 0 0 1-1.11.764 3.03 3.03 0 0 1-1.301.269c-.715 0-1.212-.197-1.493-.593-.28-.396-.42-1.078-.42-2.048 0-1.122.26-1.901.784-2.335.523-.434 1.613-.65 3.272-.65h.268v4.593zm33.048-9.646a9.126 9.126 0 0 0-2.372-1.492c-.881-.382-1.972-.765-3.273-1.148-1.2-.383-2.003-.79-2.41-1.225-.41-.434-.613-1.097-.613-1.99 0-1.684 1.02-2.526 3.061-2.526.97 0 1.793.089 2.47.267.675.18 1.421.524 2.238 1.033l2.028-4.286a12.203 12.203 0 0 0-3.233-1.397c-1.11-.293-2.43-.44-3.962-.44-2.602 0-4.657.651-6.162 1.952-1.506 1.302-2.258 3.254-2.258 5.856 0 1.276.166 2.373.498 3.291.331.92.803 1.684 1.415 2.297a8.334 8.334 0 0 0 2.182 1.55c.842.42 1.876.823 3.1 1.206 1.327.408 2.252.836 2.776 1.281.522.447.784 1.169.784 2.162 0 .996-.313 1.768-.938 2.317-.625.548-1.588.823-2.89.823-2.142 0-4.171-.676-6.085-2.028l-1.913 4.438c.918.716 2.149 1.302 3.693 1.762 1.543.46 3.157.688 4.841.688 1.684 0 3.125-.198 4.325-.593 1.2-.396 2.163-.97 2.89-1.723a6.796 6.796 0 0 0 1.588-2.66c.332-1.02.498-2.181.498-3.482 0-1.403-.205-2.59-.613-3.56-.408-.969-.963-1.76-1.665-2.373zm13.3-6.162c-1.48 0-2.832.205-4.057.612a14.205 14.205 0 0 0-3.52 1.762l1.95 3.674c.868-.51 1.723-.92 2.565-1.225a7.337 7.337 0 0 1 2.526-.459c.868 0 1.448.204 1.742.612.293.409.44 1.135.44 2.182v.726h-1.186c-2.935 0-5.085.505-6.45 1.512-1.365 1.01-2.047 2.636-2.047 4.88 0 2.017.465 3.567 1.397 4.65.931 1.085 2.392 1.627 4.382 1.627.97 0 1.824-.186 2.564-.555.74-.37 1.39-.861 1.952-1.473.025.025.115.306.268.842.153.46.242.689.268.689h4.248v-13.741c0-2.27-.555-3.89-1.664-4.86-1.11-.97-2.903-1.455-5.378-1.455zm1.646 15.808a4.308 4.308 0 0 1-1.11.764 3.03 3.03 0 0 1-1.301.269c-.715 0-1.212-.197-1.493-.593-.28-.396-.42-1.078-.42-2.048 0-1.122.26-1.901.784-2.335.522-.434 1.613-.65 3.272-.65h.268v4.593zm16.764.612c-.638 0-1.047-.096-1.225-.288-.179-.19-.268-.657-.268-1.396v-22.696h-5.396v22.275c0 2.271.306 3.865.918 4.784.613.919 1.888 1.378 3.827 1.378.613 0 1.187-.057 1.723-.173a10.088 10.088 0 0 0 1.416-.401l-.536-3.521c-.23.025-.382.038-.459.038zm10.946 0c-.638 0-1.047-.096-1.225-.288-.179-.19-.268-.657-.268-1.396v-22.696h-5.396v22.275c0 2.271.306 3.865.918 4.784.613.919 1.888 1.378 3.827 1.378.613 0 1.187-.057 1.723-.173a10.088 10.088 0 0 0 1.416-.401l-.536-3.521c-.23.025-.383.038-.459.038zm11.367-16.42c-2.68 0-4.714.805-6.105 2.412-1.39 1.607-2.086 4.197-2.086 7.77 0 3.648.76 6.289 2.277 7.921 1.519 1.635 3.923 2.45 7.215 2.45 1.352 0 2.59-.217 3.713-.65 1.122-.434 2.053-.995 2.793-1.685l-2.334-3.598c-.715.537-1.391.952-2.029 1.245-.638.294-1.39.44-2.258.44-1.225 0-2.092-.287-2.602-.861-.511-.574-.817-1.729-.919-3.464h10.525v-1.57c0-3.648-.632-6.295-1.895-7.94-1.262-1.646-3.361-2.47-6.295-2.47zm-2.335 8.305c.076-1.734.3-2.901.67-3.5.37-.6.988-.9 1.856-.9.995 0 1.652.32 1.971.957.319.637.504 1.785.555 3.443h-5.052zm22.35 3.905h8.765v-5.436h-8.764v5.436zm30.39-18.754h-8.574v26.6h8.803c3.649 0 6.245-1.123 7.789-3.369 1.543-2.245 2.316-5.65 2.316-10.218 0-4.695-.85-8.038-2.545-10.028-1.698-1.99-4.294-2.985-7.789-2.985zm3.903 17.357c-.153 1.161-.396 2.054-.727 2.678-.332.627-.76 1.06-1.282 1.302-.523.243-1.193.364-2.01.364h-2.717v-16.879h2.603c.842 0 1.53.115 2.066.345.536.23.97.625 1.302 1.186.331.562.58 1.366.746 2.412.166 1.046.25 2.398.25 4.056 0 1.863-.078 3.375-.23 4.536zm18.18-10.813c-2.78 0-4.893.805-6.334 2.412-1.442 1.607-2.162 4.197-2.162 7.77s.72 6.193 2.162 7.864c1.44 1.672 3.553 2.507 6.334 2.507s4.892-.81 6.334-2.43c1.442-1.62 2.163-4.217 2.163-7.789 0-3.598-.721-6.22-2.163-7.865-1.442-1.645-3.554-2.469-6.334-2.469zm2.162 15.253c-.37.88-1.078 1.32-2.124 1.32-1.072 0-1.793-.422-2.162-1.263-.37-.842-.555-2.5-.555-4.976 0-1.326.038-2.398.114-3.215.077-.815.217-1.448.422-1.895.203-.445.472-.758.804-.936.33-.18.778-.269 1.339-.269s1.008.083 1.34.248c.33.167.6.467.803.9.205.434.351 1.047.44 1.838.09.79.134 1.85.134 3.176 0 2.501-.185 4.191-.555 5.072zm16.974 1.167c-.638 0-1.047-.096-1.225-.288-.178-.19-.267-.657-.267-1.396v-22.696h-5.398v22.275c0 2.271.307 3.865.92 4.784.611.919 1.888 1.378 3.827 1.378.612 0 1.186-.057 1.722-.173a10.096 10.096 0 0 0 1.417-.401l-.536-3.521a5.26 5.26 0 0 1-.46.038zm10.946 0c-.638 0-1.047-.096-1.225-.288-.178-.19-.267-.657-.267-1.396v-22.696h-5.398v22.275c0 2.271.307 3.865.92 4.784.611.919 1.888 1.378 3.827 1.378.612 0 1.186-.057 1.722-.173a10.099 10.099 0 0 0 1.417-.401l-.536-3.521c-.23.025-.383.038-.46.038zm19.557-6.01c0-3.648-.631-6.295-1.894-7.94-1.263-1.646-3.362-2.47-6.295-2.47-2.68 0-4.716.805-6.105 2.412-1.391 1.607-2.086 4.197-2.086 7.77 0 3.648.758 6.289 2.277 7.921 1.518 1.635 3.923 2.45 7.214 2.45 1.353 0 2.59-.217 3.712-.65 1.123-.434 2.055-.995 2.795-1.685l-2.335-3.598c-.714.537-1.391.952-2.029 1.245-.637.294-1.39.44-2.257.44-1.226 0-2.093-.287-2.603-.861-.51-.574-.817-1.729-.919-3.464H600v-1.57zm-10.525-2.105c.077-1.734.3-2.901.67-3.5.37-.6.989-.9 1.856-.9.996 0 1.652.32 1.972.957.318.637.502 1.785.555 3.443h-5.053z" fill="#ffffff"/></svg>